<?xml version="1.0" encoding="UTF-8"?>
<svg width="1024" height="1024" viewBox="0 0 1024 1024" xmlns="http://www.w3.org/2000/svg">
  <defs>
    <linearGradient id="bgGradient" x1="0%" y1="0%" x2="100%" y2="100%">
      <stop offset="0%" style="stop-color:#FAFAFA"/>
      <stop offset="100%" style="stop-color:#F0F0F5"/>
    </linearGradient>
    <linearGradient id="leafGradient" x1="0%" y1="0%" x2="100%" y2="100%">
      <stop offset="0%" style="stop-color:#E8E8E8"/>
      <stop offset="50%" style="stop-color:#D0D0D0"/>
      <stop offset="100%" style="stop-color:#B8B8B8"/>
    </linearGradient>
  </defs>
  
  <rect width="1024" height="1024" rx="220" fill="url(#bgGradient)"/>
  
  <circle cx="512" cy="512" r="320" fill="none" stroke="#E5E5EA" stroke-width="2" opacity="0.6"/>
  <circle cx="512" cy="512" r="260" fill="none" stroke="#E5E5EA" stroke-width="2" opacity="0.5"/>
  <circle cx="512" cy="512" r="200" fill="none" stroke="#E5E5EA" stroke-width="2" opacity="0.4"/>
  
  <g transform="translate(512, 512)">
    <path d="M0,-120 
             C60,-100 100,-40 100,40 
             C100,80 60,120 0,140 
             C-60,120 -100,80 -100,40 
             C-100,-40 -60,-100 0,-120 Z" 
          fill="url(#leafGradient)" 
          opacity="0.9"/>
    
    <path d="M0,-80 L0,100" 
          stroke="#AAAAAA" 
          stroke-width="3" 
          stroke-linecap="round"
          fill="none"/>
    
    <path d="M0,-40 Q-30,-20 -50,10" 
          stroke="#AAAAAA" 
          stroke-width="2" 
          stroke-linecap="round"
          fill="none"/>
    
    <path d="M0,10 Q-25,30 -40,60" 
          stroke="#AAAAAA" 
          stroke-width="2" 
          stroke-linecap="round"
          fill="none"/>
    
    <path d="M0,-40 Q30,-20 50,10" 
          stroke="#AAAAAA" 
          stroke-width="2" 
          stroke-linecap="round"
          fill="none"/>
    
    <path d="M0,10 Q25,30 40,60" 
          stroke="#AAAAAA" 
          stroke-width="2" 
          stroke-linecap="round"
          fill="none"/>
  </g>
  
  <circle cx="512" cy="512" r="80" fill="none" stroke="#D5D5D5" stroke-width="1.5"/>
</svg>
